<svg xmlns="http://www.w3.org/2000/svg" xmlns:xlink="http://www.w3.org/1999/xlink" id="Слой_1" x="0" y="0" enable-background="new 0 0 54 50" version="1.1" viewBox="0 0 54 50" xml:space="preserve"><style type="text/css">.st0{fill:#63cd42}</style><g><path d="M15.9,20c1.5,0,1.7-0.9,1.7-1.4V8.4C17.6,8,17.4,7,15.9,7H9C7.5,7,7.3,8,7.3,8.4v10.3C7.3,19.1,7.5,20,9,20 H15.9z M8.7,18.6l0-10.2c0.1,0,0.1,0,0.3,0h7c0.2,0,0.3,0,0.3,0l0,10.2c-0.1,0-0.1,0-0.3,0H9C8.8,18.7,8.7,18.7,8.7,18.6z" class="st0"/><path d="M39.4,7h-7c-1.5,0-1.7,0.9-1.7,1.4v10.3c0,0.4,0.2,1.4,1.7,1.4h7c1.5,0,1.7-0.9,1.7-1.4V8.4 C41,8,40.9,7,39.4,7z M39.7,18.7c-0.1,0-0.2,0-0.3,0h-7c-0.2,0-0.3,0-0.3,0l0-10.2c0.1,0,0.1,0,0.3,0h7c0.2,0,0.3,0,0.3,0 L39.7,18.7z" class="st0"/><path d="M20.8,20h7c1.5,0,1.7-0.9,1.7-1.4v-10c0-0.9-0.7-1.7-1.7-1.7h-7c-1.5,0-1.7,0.9-1.7,1.4v10.3 C19.1,19.1,19.2,20,20.8,20z M20.4,8.4c0.1,0,0.1,0,0.3,0h7c0.2,0,0.3,0.1,0.3,0.3l0,9.9c-0.1,0-0.2,0-0.3,0h-7c-0.2,0-0.3,0-0.3,0 L20.4,8.4z" class="st0"/><path d="M38.2,29.9H10.2c-0.7,0-1.4,0.6-1.4,1.4v2.7c0,0.8,0.6,1.4,1.4,1.4h28.1c0.7,0,1.4-0.6,1.4-1.4v-2.7 C39.6,30.6,39,29.9,38.2,29.9z M10.2,34.1v-2.7h28.1l0,2.7H10.2z" class="st0"/><path d="M38.6,24.6c0-1.5-1.2-2.7-2.7-2.7c-1.5,0-2.7,1.2-2.7,2.7c0,1.5,1.2,2.7,2.7,2.7 C37.4,27.4,38.6,26.2,38.6,24.6z M34.2,24.6c0-0.9,0.8-1.7,1.7-1.7c0.9,0,1.7,0.8,1.7,1.7c0,0.9-0.8,1.7-1.7,1.7 C34.9,26.4,34.2,25.6,34.2,24.6z" class="st0"/><path d="M21.4,24.6c0,1.5,1.2,2.7,2.7,2.7c1.5,0,2.7-1.2,2.7-2.7c0-1.5-1.2-2.7-2.7-2.7C22.6,21.9,21.4,23.1,21.4,24.6 z M25.8,24.6c0,0.9-0.8,1.7-1.7,1.7c-0.9,0-1.7-0.8-1.7-1.7c0-0.9,0.8-1.7,1.7-1.7C25.1,22.9,25.8,23.7,25.8,24.6z" class="st0"/><path d="M9.7,24.6c0,1.5,1.2,2.7,2.7,2.7c1.5,0,2.7-1.2,2.7-2.7c0-1.5-1.2-2.7-2.7-2.7C11,21.9,9.7,23.1,9.7,24.6z M14.1,24.6c0,0.9-0.8,1.7-1.7,1.7c-0.9,0-1.7-0.8-1.7-1.7c0-0.9,0.8-1.7,1.7-1.7C13.4,22.9,14.1,23.7,14.1,24.6z" class="st0"/><path d="M54,14.7c0-1.7-1.4-3.1-3.1-3.1c-1.7,0-3.1,1.4-3.1,3.1c0,1.4,1,2.7,2.3,3c0,0,0,0,0,0.1v6h-5.5V3.5 c0-1.3-0.6-3.5-4.5-3.5H8.2C4.3,0,3.7,2.2,3.7,3.5v38H2.7C1.2,41.5,0,42.6,0,44v3.6C0,48.9,1.2,50,2.7,50h43.2 c1.5,0,2.7-1.1,2.7-2.5V44c0-1.4-1.2-2.5-2.7-2.5h-1.4v-16h6.4c0.5,0,0.8-0.4,0.8-0.9v-6.9c0,0,0,0,0-0.1C53,17.4,54,16.1,54,14.7z M46.9,44v3.6c0,0.4-0.4,0.8-1,0.8H2.7c-0.5,0-1-0.3-1-0.8V44c0-0.4,0.4-0.8,1-0.8h43.2C46.4,43.2,46.9,43.6,46.9,44z M28.7,41.5 h-9.2v-2.3h9.2V41.5z M30.1,41.5v-2.3c0-0.8-0.6-1.4-1.4-1.4h-9.2c-0.7,0-1.4,0.6-1.4,1.4v2.3H5.4v-38c0-0.5,0-1.8,2.8-1.8h31.9 c2.8,0,2.8,1.2,2.8,1.8v38H30.1z M50.9,16.1c-0.8,0-1.4-0.6-1.4-1.4c0-0.8,0.6-1.4,1.4-1.4c0.8,0,1.4,0.6,1.4,1.4 C52.3,15.5,51.7,16.1,50.9,16.1z" class="st0"/></g></svg>