<svg xmlns="http://www.w3.org/2000/svg" xmlns:xlink="http://www.w3.org/1999/xlink" id="Layer_1" x="0" y="0" enable-background="new -85 -99.2 1133.9 1417.3" version="1.1" viewBox="-85 -99.2 1133.9 1417.3" xml:space="preserve"><style type="text/css">.st0{fill:#63cd42}</style><g><g><path d="M-85,1318.1V294.3h552.8l-113.9-33c-60.2-14-117.5-37.9-170.1-70.8c-41.4-25.9-79.2-56.9-112.7-92.5h36 c62,60,277.9,170.2,355.7,163.5l-121.8-63.9c-76.8-54.1-102.8-83.5-111-98.6c-16.8-30.8-20.4-66.8-10-101.4 c10.3-34.5,33.1-62.9,64-80.1c19.6-10.9,42.2-16.7,65.4-16.7c49.5,0,94.8,25.2,118.1,65.7l14.3,24.9l14.3-24.9 c23.3-40.5,68.6-65.7,118.1-65.7c23.2,0,45.8,5.8,65.5,16.7c31,17.2,53.7,45.7,64,80.1c10.4,34.5,6.8,70.5-10,101.4 c-8.2,15.1-34.2,44.5-111,98.6l-120.1,72.3C584.5,245.1,794.7,158,856.7,98h36c-33.5,35.6-71.3,66.6-112.7,92.5 c-52.7,33-109.9,56.8-170.2,70.8l-113.9,33h552.8v1023.8H-85z M495.2,1291.1h526.9V653.6H495.2V1291.1z M-58.3,1291.1h526.9V653.6 H-58.3V1291.1z M495.2,626.6h526.9V321.3H495.2V626.6z M-58.3,626.6h526.9V321.3H-58.3V626.6z M612.1-70.6 c-41,0-78.2,21.4-97,55.9c-13.2,24.1-19.9,81.3-20,170l0,0.5c0.6,19,0.9,39.4,1,60.7l0,0.5l0,1.1l1.4,26.9l23.3-13.2 c16.6-9.4,162.5-93.1,188.3-140.4c13.9-25.4,16.8-55,8.4-83.3c-8.4-28-26.9-51.2-52.1-65.2C649.3-65.9,630.9-70.6,612.1-70.6z M351.7-70.6c-18.8,0-37.2,4.7-53.3,13.6c-25.2,14-43.7,37.2-52.1,65.2c-8.5,28.3-5.5,57.9,8.4,83.3 c25.8,47.3,171.8,131,188.3,140.4l23.1,13.1l1.5-26.8c0,0,0-0.4,0-1.1l0-0.5c0.1-20.7,0.4-41.1,1-60.6l0-0.5 c-0.1-88.8-6.8-146.1-20-170.2C429.9-49.2,392.7-70.6,351.7-70.6z" class="st0"/></g></g></svg>